<?xml version="1.0" standalone="no"?>
<!DOCTYPE svg PUBLIC "-//W3C//DTD SVG 20010904//EN"
 "http://www.w3.org/TR/2001/REC-SVG-20010904/DTD/svg10.dtd">
<svg version="1.0" xmlns="http://www.w3.org/2000/svg"
 width="300.000000pt" height="259.000000pt" viewBox="0 0 300.000000 259.000000"
 preserveAspectRatio="xMidYMid meet">
<metadata>
Created by potrace 1.10, written by Peter Selinger 2001-2011
</metadata>
<g transform="translate(0.000000,259.000000) scale(0.100000,-0.100000)"
fill="#4e7a27" stroke="none">
<path d="M1420 2446 c-25 -7 -51 -15 -59 -17 -8 -2 -26 -13 -39 -24 -58 -47
-946 -943 -966 -975 -39 -61 -53 -118 -45 -188 12 -99 45 -146 216 -310 84
-80 153 -150 153 -154 0 -11 -71 -28 -121 -28 -57 0 -128 21 -169 50 -38 27
-74 29 -101 4 -16 -14 -19 -25 -14 -56 5 -28 3 -42 -10 -54 -12 -13 -15 -26
-10 -52 5 -25 2 -39 -11 -53 -11 -12 -14 -27 -10 -44 4 -15 0 -37 -10 -56 -9
-18 -13 -41 -10 -55 4 -15 0 -34 -10 -49 -9 -14 -13 -33 -9 -44 3 -11 -1 -34
-9 -50 -21 -39 -20 -46 5 -70 42 -39 206 -45 319 -12 87 25 184 73 245 122 78
61 175 123 230 146 52 22 65 22 47 1 -7 -9 -7 -20 2 -36 22 -41 285 -299 328
-322 30 -16 66 -24 118 -28 110 -6 177 27 288 142 46 48 87 84 92 81 6 -4 10
1 10 9 0 8 23 38 50 67 54 56 56 60 39 91 -10 18 -8 19 13 13 38 -12 110 -51
163 -89 141 -101 195 -135 245 -157 30 -12 57 -26 60 -29 3 -4 12 -7 20 -8 8
0 22 -3 30 -5 112 -30 255 -26 308 9 25 16 28 50 7 78 -8 11 -12 30 -8 46 3
15 -1 38 -8 51 -7 13 -12 41 -10 61 1 21 -3 38 -8 38 -16 0 -22 35 -12 64 6
14 7 26 2 26 -14 0 -29 46 -24 73 3 15 0 34 -7 42 -7 8 -13 33 -14 56 -1 33
-7 46 -29 63 -25 18 -30 19 -50 6 -79 -50 -111 -62 -175 -67 -65 -4 -142 11
-142 28 0 15 112 119 121 113 5 -3 9 0 9 7 0 6 30 42 68 78 138 138 165 186
165 298 -1 112 -27 149 -274 397 -115 114 -209 212 -209 217 0 5 -4 9 -9 9 -6
0 -79 70 -163 156 -84 87 -166 169 -182 183 -16 14 -52 50 -80 80 -59 62 -124
109 -168 122 -57 16 -133 18 -178 5z m190 -47 c35 -15 152 -127 519 -492 523
-522 521 -519 521 -637 0 -105 -23 -140 -217 -333 l-169 -168 -39 9 -40 8 183
183 c100 101 190 197 199 214 21 40 22 132 2 170 -14 26 -229 244 -751 764
-252 250 -262 256 -368 233 l-55 -12 -473 -471 c-261 -260 -482 -489 -493
-509 -23 -46 -25 -127 -3 -171 9 -18 97 -114 197 -214 100 -100 179 -184 177
-186 -3 -3 -20 -8 -38 -12 -32 -7 -37 -2 -202 162 -199 198 -226 241 -218 347
3 35 15 81 28 106 26 51 916 948 986 994 74 48 164 53 254 15z m-47 -93 c29
-12 127 -99 127 -113 0 -3 8 -12 18 -19 16 -13 16 -13 0 -14 -10 0 -18 4 -18
10 0 13 -64 24 -95 16 -13 -3 -41 -20 -60 -37 -38 -34 -37 -34 -89 13 -27 24
-84 33 -120 20 -49 -19 -44 -3 18 55 88 82 146 100 219 69z m-160 -160 c18 -7
40 -22 49 -33 22 -24 35 -83 19 -83 -6 0 -11 4 -11 9 0 14 -50 71 -63 71 -6 0
2 -13 18 -30 46 -48 4 -38 -53 12 -26 24 -49 44 -52 46 -8 5 24 22 43 22 10 0
32 -6 50 -14z m265 8 c22 -6 21 -8 -18 -45 -22 -21 -49 -43 -59 -49 -38 -20
-44 -10 -15 21 16 18 22 30 14 27 -8 -2 -25 -20 -38 -39 -30 -44 -45 -49 -36
-12 10 44 33 73 67 88 36 16 52 17 85 9z m-350 -57 c37 -17 25 -29 -23 -21
-33 4 -45 3 -45 -6 0 -8 9 -11 25 -8 14 3 25 2 25 -3 0 -17 -43 -30 -92 -27
l-52 3 33 37 c41 47 71 53 129 25z m490 -22 c12 -15 22 -30 22 -36 0 -14 -92
-10 -120 6 -26 15 -21 19 18 15 12 -1 22 4 22 10 0 8 -15 10 -51 5 -58 -8 -61
7 -6 30 39 16 84 4 115 -30z m-294 -170 c3 -66 9 -165 12 -219 l7 -99 21 38
c12 21 27 47 33 59 7 11 13 40 13 64 0 23 4 42 9 42 6 0 6 13 0 34 -6 21 -6
43 0 59 9 23 55 67 72 67 13 0 2 -109 -12 -127 -12 -14 -15 -12 -20 23 -6 38
-6 37 -8 -13 0 -29 -5 -53 -11 -53 -5 0 -10 -15 -10 -34 l0 -35 43 24 c23 12
56 25 72 29 l30 6 -35 -20 c-22 -13 -26 -18 -12 -15 33 9 79 -3 112 -32 17
-14 30 -28 30 -31 0 -11 -144 -13 -160 -2 -13 8 -13 10 0 14 8 3 29 7 45 9 17
3 10 3 -15 2 -25 -1 -54 -6 -64 -11 -16 -6 -18 -4 -13 12 13 38 -56 -52 -81
-105 -24 -53 -25 -57 -18 -200 4 -80 9 -148 12 -150 2 -2 13 7 24 21 11 14 44
42 73 61 54 36 67 57 101 157 l14 45 1 -40 c0 -22 -6 -57 -13 -77 -8 -21 -13
-38 -12 -38 1 0 25 6 52 14 68 20 168 28 234 18 53 -8 51 -8 -56 -15 -137 -9
-190 -26 -253 -83 -72 -65 -104 -136 -105 -232 -1 -65 3 -86 28 -135 15 -32
34 -61 42 -64 21 -8 17 -23 -6 -23 -35 0 -124 -47 -159 -83 l-33 -35 -36 35
c-38 39 -124 83 -160 83 -23 0 -23 0 7 38 126 158 43 419 -152 477 -29 8 -99
18 -156 22 -92 6 -105 4 -117 -11 -14 -20 -38 -18 -25 2 21 33 226 38 329 7
52 -16 58 -15 43 12 -15 28 -26 128 -14 120 6 -4 13 -21 17 -39 11 -56 54
-134 81 -146 14 -6 45 -30 68 -52 l44 -40 12 129 c10 98 10 139 1 172 -15 58
-50 117 -91 154 -24 21 -28 23 -14 6 l20 -24 -25 8 c-14 4 -47 9 -75 10 -27 2
-34 1 -15 -1 93 -12 68 -35 -34 -32 -73 3 -83 15 -38 47 39 27 76 35 112 22
17 -5 28 -6 25 -1 -3 5 -21 14 -41 20 -19 7 -33 14 -30 17 7 8 78 -17 108 -38
14 -11 28 -19 30 -19 2 0 3 18 3 39 0 22 -3 37 -7 35 -5 -3 -9 2 -9 10 -1 9
-3 21 -4 26 -1 6 -4 22 -5 38 -2 22 -4 20 -9 -13 -6 -39 -7 -39 -19 -17 -7 13
-12 45 -10 75 l3 52 39 -38 c35 -34 38 -41 33 -76 -7 -57 16 -160 45 -203 l26
-38 5 43 c4 23 12 125 18 225 7 101 15 178 19 170 4 -7 10 -67 14 -133z m-295
95 c28 0 61 -22 61 -40 0 -16 -21 -22 -35 -10 -15 12 -40 3 -69 -26 -15 -14
-18 -14 -42 5 -35 27 -48 26 -77 -5 -20 -22 -23 -33 -19 -75 4 -40 1 -53 -15
-67 -10 -9 -26 -27 -35 -40 l-16 -24 -12 36 c-6 20 -19 40 -28 45 -14 8 1 28
93 119 109 109 110 110 137 96 15 -8 40 -14 57 -14z m181 15 c32 -16 70 -61
70 -81 0 -9 -18 0 -46 21 -25 19 -51 35 -57 35 -6 0 5 -11 26 -25 20 -14 37
-28 37 -30 0 -16 -45 0 -91 31 -69 47 -66 44 -49 54 23 14 77 12 110 -5z m310
5 c8 -5 12 -11 10 -13 -20 -17 -128 -77 -138 -77 -21 0 -13 15 19 34 17 10 28
20 25 23 -3 3 -28 -11 -56 -32 -27 -20 -50 -34 -50 -30 0 20 36 69 63 85 34
21 102 26 127 10z m150 0 c0 -5 4 -10 9 -10 12 0 111 -98 111 -110 0 -5 9 -12
20 -15 11 -3 32 -22 46 -41 25 -33 26 -35 10 -53 -10 -10 -20 -31 -24 -46 l-8
-27 -37 46 c-36 43 -38 49 -30 88 8 39 6 44 -21 70 -16 15 -30 28 -32 28 -12
0 -54 -25 -54 -32 0 -15 -16 -9 -46 17 -28 25 -38 26 -76 10 -13 -5 -18 -3
-18 8 0 21 20 35 69 46 24 5 48 14 54 20 14 14 27 14 27 1z m-610 -133 c1 -23
7 -53 15 -67 8 -14 14 -28 15 -31 0 -13 -82 -2 -91 12 -17 27 -10 77 17 108
32 38 44 32 44 -22z m555 1 c24 -42 5 -108 -32 -108 -12 0 -12 3 1 22 9 12 16
29 16 37 0 8 -10 -1 -23 -20 -12 -19 -31 -35 -41 -37 -16 -4 -16 -2 -1 28 9
17 19 53 22 80 5 43 8 47 23 38 10 -6 25 -24 35 -40z m-650 -46 c22 -45 12
-51 -25 -14 -32 33 -40 30 -14 -6 11 -17 12 -22 2 -22 -41 1 -62 52 -42 100
l15 34 24 -29 c13 -17 32 -45 40 -63z m770 44 c12 -36 -11 -80 -45 -85 -24 -3
-24 -2 -7 16 29 33 19 39 -13 8 -54 -52 -48 -9 9 62 30 38 42 38 56 -1z m-479
-33 c-3 -16 -8 -48 -12 -72 -4 -31 -9 -40 -15 -30 -5 8 -6 28 -3 44 4 17 6 42
6 58 0 18 4 27 14 27 12 0 14 -7 10 -27z m129 -34 c5 -38 3 -65 -3 -71 -7 -7
-12 5 -17 38 -3 27 -7 59 -9 72 -2 13 2 22 9 22 8 0 16 -22 20 -61z m-640
-131 c4 -51 5 -106 3 -123 l-3 -30 -14 24 c-7 14 -17 47 -22 75 l-8 51 3 -52
c3 -55 -6 -67 -24 -34 -22 41 -7 119 32 169 20 25 26 10 33 -80z m229 86 c30
-11 16 -24 -26 -24 -24 0 -50 -5 -58 -10 -11 -7 -2 -8 30 -4 40 6 43 5 30 -9
-8 -8 -41 -22 -72 -30 -56 -13 -58 -13 -58 5 0 11 13 33 29 49 23 22 39 29 69
29 22 0 47 -3 56 -6z m789 -20 c27 -26 43 -61 34 -71 -3 -2 -14 0 -25 6 -12 6
-32 11 -45 11 -14 0 -35 9 -48 20 l-24 21 45 -6 c32 -3 39 -2 25 4 -11 5 -37
10 -57 10 -37 1 -58 15 -36 24 7 3 34 6 59 6 37 1 51 -4 72 -25z m146 0 c47
-60 50 -144 6 -168 -11 -6 -25 -18 -31 -26 -7 -8 -14 -13 -16 -10 -7 11 4 230
12 230 5 0 18 -12 29 -26z m-1272 -91 c-2 -35 -9 -53 -29 -75 -31 -33 -35 -34
-68 -8 l-25 19 55 56 c30 30 57 55 61 55 4 0 7 -21 6 -47z m1426 -23 c32 -35
30 -55 -7 -71 -22 -10 -28 -8 -50 17 -20 22 -25 40 -26 77 l0 48 28 -19 c15
-11 40 -34 55 -52z m-1261 8 c-7 -7 -12 -8 -13 -2 0 5 -2 18 -4 28 -3 18 -2
18 13 3 13 -13 13 -19 4 -29z m1028 17 c0 -8 -7 -15 -15 -15 -9 0 -12 6 -9 15
4 8 10 15 15 15 5 0 9 -7 9 -15z m-900 -12 c0 -9 -45 -53 -54 -53 -11 0 -35
31 -36 47 0 6 15 13 33 15 33 3 57 0 57 -9z m848 2 c6 -5 -32 -54 -41 -55 -12
0 -46 42 -47 58 0 11 10 12 43 7 23 -4 44 -9 45 -10z m-940 -77 c6 -29 23 -74
37 -100 13 -27 20 -48 16 -48 -20 0 -62 44 -70 73 -8 29 -9 30 -10 7 -1 -14 6
-36 15 -48 13 -20 14 -22 0 -22 -23 0 -49 46 -49 88 0 37 26 102 41 102 4 0
13 -24 20 -52z m128 0 c2 -24 6 -67 9 -95 4 -30 2 -53 -3 -53 -12 0 -32 46
-32 75 0 14 -5 25 -11 25 -11 0 -8 -25 7 -64 3 -9 1 -16 -5 -16 -18 0 -44 65
-37 93 7 28 55 91 64 83 2 -3 6 -25 8 -48z m114 42 c0 -5 -6 -13 -14 -17 -7
-4 -18 -18 -25 -30 -6 -13 -16 -23 -21 -23 -5 0 -12 10 -15 23 -18 60 -19 57
29 57 25 0 46 -4 46 -10z m540 -15 c0 -14 -5 -34 -12 -45 -11 -18 -13 -17 -35
16 -28 40 -23 54 18 54 24 0 29 -4 29 -25z m80 -20 c25 -41 26 -86 0 -116
l-20 -24 5 50 5 50 -13 -48 c-13 -45 -32 -76 -40 -66 -2 2 1 48 6 101 10 106
19 114 57 53z m124 5 c25 -62 21 -97 -15 -132 -24 -24 -33 -28 -39 -18 -7 11
-11 11 -24 0 -26 -20 -29 -6 -7 31 11 19 25 57 31 84 7 28 13 56 16 63 7 23
22 12 38 -28z m-664 18 c-2 -35 -58 -158 -72 -158 -13 0 -9 40 8 72 9 18 11
27 4 23 -7 -4 -18 -21 -25 -39 l-13 -31 -7 28 c-9 35 15 74 58 92 31 14 47 18
47 13z m373 -36 c17 -16 27 -36 27 -54 0 -37 -13 -36 -28 4 -6 17 -14 29 -18
26 -3 -3 2 -20 10 -37 32 -60 12 -85 -22 -28 -25 39 -51 114 -44 122 10 9 46
-7 75 -33z m-770 -135 c-6 -10 -42 10 -75 41 -16 14 -28 22 -28 18 0 -4 14
-21 31 -37 31 -29 31 -29 7 -29 -34 0 -69 41 -75 89 -10 77 1 77 76 -1 38 -40
67 -76 64 -81z m663 128 c2 -24 -6 -32 -19 -19 -5 6 9 44 16 44 1 0 3 -11 3
-25z m564 -61 c-17 -50 -50 -74 -98 -71 -23 1 -41 5 -39 9 1 4 31 40 67 79
l64 72 8 -29 c4 -16 3 -43 -2 -60z m-788 44 c-9 -9 -12 -7 -12 12 0 19 3 21
12 12 9 -9 9 -15 0 -24z m-598 -73 c30 -46 12 -48 -39 -4 -19 17 -35 26 -35
21 0 -6 11 -19 25 -30 29 -23 32 -32 9 -32 -29 0 -74 56 -74 93 0 18 3 36 6
40 8 8 88 -57 108 -88z m1516 51 c0 -50 -34 -96 -72 -96 -23 1 -23 1 5 23 39
32 34 43 -6 13 -34 -26 -57 -33 -57 -18 0 5 21 29 46 53 25 24 51 49 57 56 21
21 27 14 27 -31z m-1664 -31 c-3 -8 -18 -15 -33 -15 l-28 1 30 26 c29 25 43
20 31 -12z m1744 5 c9 -18 8 -20 -15 -20 -18 0 -25 5 -25 20 0 11 7 20 15 20
8 0 19 -9 25 -20z m-985 -32 c-10 -58 -44 -123 -57 -110 -7 7 -6 22 2 47 7 20
9 39 6 42 -3 4 -9 -8 -12 -26 -8 -38 -20 -48 -29 -22 -9 29 12 69 47 91 46 28
51 26 43 -22z m225 25 c14 -9 30 -24 37 -33 15 -18 17 -66 3 -75 -5 -3 -10 2
-10 12 0 11 -7 28 -16 39 -15 19 -16 19 -8 -1 4 -11 9 -36 12 -55 10 -76 -43
12 -62 103 -7 32 7 35 44 10z m-935 -63 c39 -15 20 -33 -28 -27 -27 4 -36 2
-26 -4 7 -5 25 -9 39 -9 24 -1 24 -1 6 -15 -11 -8 -28 -15 -39 -15 -20 0 -77
51 -77 69 0 14 90 14 125 1z m1735 1 c0 -15 -70 -71 -89 -71 -10 0 -24 7 -31
15 -11 13 -8 15 13 15 14 0 28 4 31 9 4 5 -3 7 -14 4 -11 -3 -32 -2 -47 2
l-28 7 25 13 c28 16 140 20 140 6z m-1880 -26 c0 -19 67 -75 90 -75 11 0 20
-6 20 -12 1 -17 35 -58 48 -58 5 0 13 -17 17 -37 14 -78 60 -107 100 -63 25
28 32 25 39 -14 6 -31 20 -45 54 -52 7 -1 34 17 59 41 35 33 56 46 89 51 l44
6 0 -31 c0 -30 37 -82 57 -81 18 1 53 40 76 87 14 27 33 50 41 50 19 0 46 -65
53 -129 4 -36 0 -64 -17 -110 -12 -35 -25 -65 -29 -68 -3 -3 -11 -14 -17 -25
-10 -18 -22 -20 -140 -21 -97 -1 -149 -6 -211 -23 -45 -11 -90 -21 -99 -21
-13 0 -59 42 -135 125 -5 6 -15 16 -22 23 -6 7 -20 21 -30 30 -66 60 -155 159
-174 193 -23 40 -31 103 -13 114 5 3 7 12 4 19 -3 7 14 34 37 59 39 45 59 52
59 22z m1995 -110 c5 -33 2 -66 -5 -87 -14 -38 -72 -108 -89 -108 -6 0 -11 -4
-11 -10 0 -5 -58 -69 -129 -142 l-130 -133 -68 18 c-109 27 -204 37 -301 31
l-90 -6 -13 36 c-7 20 -16 36 -19 36 -4 0 -15 27 -25 61 -16 52 -17 69 -7 115
12 57 40 124 52 124 4 0 15 -17 24 -37 9 -21 31 -55 49 -76 30 -36 34 -38 59
-26 27 12 30 17 43 73 6 27 8 28 46 23 29 -4 50 -16 80 -46 58 -57 119 -54
119 5 0 32 14 37 40 14 28 -25 52 -25 72 -2 15 16 20 29 32 82 3 14 19 33 36
43 16 10 30 24 30 31 0 8 14 19 32 27 34 14 88 65 88 83 0 5 18 -9 39 -33 32
-35 41 -54 46 -96z m-1705 107 c0 -5 -18 -17 -40 -27 -23 -10 -43 -23 -47 -28
-3 -5 9 -1 27 8 38 20 50 13 26 -14 -18 -20 -105 -55 -114 -46 -15 15 42 95
78 108 24 9 70 8 70 -1z m1395 -6 c23 -10 41 -28 55 -56 12 -23 19 -44 16 -47
-8 -8 -73 17 -100 38 -36 28 -33 43 5 24 17 -9 33 -14 37 -11 3 4 -18 16 -46
28 -29 12 -52 26 -52 30 0 13 48 9 85 -6z m-95 -26 c0 -14 -14 -12 -28 2 -19
19 -14 30 8 18 11 -6 20 -15 20 -20z m-1126 3 c4 -4 -16 -18 -45 -30 -29 -13
-49 -26 -46 -29 4 -4 18 1 33 10 14 10 28 15 31 12 10 -10 -29 -47 -67 -64
-19 -9 -38 -18 -42 -20 -14 -7 -8 38 8 69 21 42 104 75 128 52z m1079 -33 c17
-19 27 -42 27 -60 l0 -30 -48 24 c-49 25 -79 52 -69 62 3 3 17 -2 31 -12 15
-9 29 -14 33 -11 3 4 -17 17 -45 30 -58 27 -57 41 3 34 28 -4 48 -15 68 -37z
m-132 0 c5 0 9 -4 9 -10 0 -17 -25 -11 -42 9 -16 18 -16 20 0 23 9 2 18 -2 20
-9 2 -7 8 -13 13 -13z m-898 6 c7 4 5 -1 -5 -11 -20 -22 -45 -11 -26 12 8 10
14 11 16 4 2 -6 9 -8 15 -5z m-236 -28 c-36 -88 -38 -93 -22 -74 8 11 15 26
15 33 0 7 5 13 10 13 19 0 10 -56 -15 -93 -30 -43 -40 -46 -49 -14 -12 47 -6
86 20 116 26 31 51 42 41 19z m373 4 c0 -5 -26 -17 -57 -27 -32 -10 -53 -20
-46 -22 7 -2 21 0 32 6 32 18 46 13 27 -8 -19 -21 -123 -67 -132 -58 -11 11
37 87 64 101 29 16 112 22 112 8z m718 -17 c30 -25 60 -81 49 -92 -8 -8 -113
36 -128 53 -16 20 -5 28 19 15 12 -6 27 -11 34 -11 23 0 -13 19 -59 31 -58 15
-54 29 6 29 38 0 56 -6 79 -25z m288 -6 c24 -25 29 -38 28 -75 -1 -59 -17 -75
-43 -43 -29 35 -44 76 -36 96 5 15 10 12 26 -17 15 -26 18 -29 13 -10 -3 14
-12 35 -20 47 -28 44 -10 45 32 2z m-936 -19 c0 -5 -7 -10 -16 -10 -18 0 -74
-53 -74 -70 0 -6 12 3 26 20 15 17 29 28 32 25 9 -9 -61 -145 -73 -141 -15 4
-29 70 -21 101 11 42 59 85 95 85 17 0 31 -4 31 -10z m546 -24 c27 -27 34 -42
34 -72 0 -44 -9 -84 -19 -84 -11 0 -83 141 -76 148 4 4 20 -9 37 -28 20 -23
25 -26 16 -10 -8 14 -29 34 -46 45 -38 25 -40 35 -6 35 16 0 39 -13 60 -34z
m-825 6 c-5 -9 -19 -26 -30 -36 -12 -11 -21 -24 -21 -30 1 -6 12 3 25 19 l25
30 0 -25 c0 -26 -64 -100 -87 -100 -18 0 -17 54 2 90 17 32 61 70 82 70 10 0
11 -5 4 -18z m1049 2 c15 -9 35 -29 44 -44 17 -30 22 -100 6 -100 -20 0 -90
77 -90 100 0 24 0 24 32 -6 34 -30 22 -9 -21 39 -28 30 -14 36 29 11z m-730
-465 c72 -30 120 -60 155 -97 l29 -31 45 41 c91 79 201 118 339 118 101 0 193
-18 338 -67 99 -33 119 -37 219 -37 96 -1 115 2 153 22 24 13 45 29 49 37 7
19 24 19 49 1 18 -14 18 -15 -10 -45 -15 -16 -51 -40 -80 -53 -75 -33 -218
-31 -339 6 -101 30 -114 32 -72 10 49 -25 193 -64 264 -70 76 -7 160 12 204
46 22 18 29 19 47 8 28 -18 25 -29 -15 -57 -100 -68 -259 -70 -440 -5 -14 5
-17 4 -10 -3 18 -19 151 -62 219 -71 83 -11 166 0 213 28 l36 21 21 -21 21
-21 -25 -19 c-74 -56 -254 -66 -373 -20 -65 24 -91 20 -31 -5 100 -42 140 -50
244 -50 80 0 112 4 136 17 30 16 32 16 48 -1 24 -27 20 -36 -26 -56 -71 -29
-200 -31 -289 -5 -112 33 -118 34 -89 16 14 -9 60 -27 103 -41 92 -30 216 -34
274 -10 33 14 37 14 49 -2 8 -10 13 -25 11 -33 -7 -44 -241 -52 -347 -11 -68
26 -87 27 -40 1 75 -42 166 -62 263 -58 51 2 99 7 108 11 13 6 21 1 32 -23 16
-30 15 -31 -11 -42 -46 -19 -229 -16 -292 6 -92 31 -169 75 -274 153 -161 120
-285 174 -409 175 -99 2 -201 -55 -243 -134 -13 -25 -20 -28 -67 -28 -50 0
-53 2 -72 36 -42 78 -135 127 -240 126 -122 0 -241 -51 -405 -173 -52 -39
-114 -82 -138 -96 -62 -37 -175 -72 -252 -79 -69 -7 -200 11 -200 27 0 4 5 20
12 34 8 18 16 24 27 19 9 -4 58 -9 109 -12 94 -4 190 16 265 55 50 25 22 25
-56 -2 -55 -18 -96 -25 -154 -25 -70 0 -183 22 -183 36 0 2 7 15 16 29 15 23
17 23 56 9 86 -30 226 -14 342 39 77 36 70 42 -11 10 -121 -45 -297 -41 -366
9 -18 13 -18 15 0 37 l18 22 45 -20 c84 -38 235 -24 366 34 77 34 67 38 -18 8
-62 -22 -90 -27 -188 -27 -107 -1 -119 1 -167 27 -29 15 -53 31 -53 36 0 4 9
16 20 26 18 16 20 16 52 -3 88 -53 253 -44 404 23 30 13 54 26 54 28 0 3 -41
-8 -92 -25 -156 -50 -305 -38 -388 31 l-34 28 27 18 c26 17 27 16 57 -8 40
-34 125 -51 209 -42 64 6 295 75 275 82 -6 2 -39 -6 -75 -17 -35 -12 -104 -27
-152 -33 -76 -10 -98 -9 -153 6 -67 17 -147 64 -158 92 -4 10 3 19 19 27 21 9
29 7 59 -20 20 -17 55 -36 78 -43 62 -16 210 -6 283 21 177 64 264 80 400 76
97 -3 131 -8 175 -27z m-23 -289 c30 -13 69 -43 104 -80 50 -55 59 -60 97 -60
57 0 85 15 123 66 43 58 117 94 193 94 47 0 56 -3 56 -18 0 -25 -253 -269
-297 -287 -79 -33 -149 -8 -235 83 -32 33 -58 58 -58 55 0 -3 -26 21 -57 54
-32 33 -69 67 -82 75 -13 9 -20 21 -16 27 11 19 119 13 172 -9z m148 -319
c105 -29 146 -8 314 162 l134 135 36 -10 c20 -6 37 -11 38 -12 2 -2 -65 -70
-147 -152 -172 -171 -216 -198 -315 -198 -96 0 -133 23 -303 190 -84 82 -152
152 -152 156 0 4 15 11 33 16 31 9 34 7 177 -133 114 -112 154 -145 185 -154z"/>
<path d="M1409 954 c-1 -16 0 -33 1 -39 1 -5 3 -16 3 -22 0 -7 4 -13 7 -13 7
0 1 91 -6 99 -2 2 -5 -9 -5 -25z"/>
<path d="M1549 946 c13 -14 38 -30 55 -35 l31 -11 -25 20 c-51 41 -64 50 -74
50 -5 0 1 -11 13 -24z"/>
<path d="M1450 908 c0 -19 50 -122 55 -116 3 3 -4 26 -15 52 -11 26 -20 54
-20 62 0 8 -4 14 -10 14 -5 0 -10 -6 -10 -12z"/>
<path d="M1530 903 c0 -7 23 -17 93 -40 9 -3 17 -1 17 4 0 5 -19 14 -42 21
-24 7 -49 15 -55 18 -7 3 -13 2 -13 -3z"/>
<path d="M1506 863 c4 -16 11 -32 17 -38 7 -7 8 -4 3 8 -3 10 -6 27 -6 38 0
10 -5 19 -10 19 -6 0 -8 -11 -4 -27z"/>
<path d="M1540 860 c0 -15 21 -23 32 -12 6 6 2 11 -11 15 -12 3 -21 1 -21 -3z"/>
<path d="M1211 1839 c-1 -15 7 -33 16 -40 13 -11 15 -11 9 -1 -5 8 -12 26 -16
40 l-8 27 -1 -26z"/>
<path d="M2091 1635 c1 -46 1 -48 11 -22 7 20 7 35 0 50 -9 18 -11 14 -11 -28z"/>
<path d="M1979 1498 c-7 -18 -15 -37 -17 -43 -3 -5 2 -4 10 3 16 13 33 60 25
69 -3 2 -11 -11 -18 -29z"/>
<path d="M2106 1469 c-16 -16 -25 -29 -19 -29 11 0 58 48 52 54 -2 2 -17 -9
-33 -25z"/>
<path d="M2040 596 c0 -9 61 -38 67 -32 3 3 -7 10 -22 16 -15 6 -32 13 -36 16
-5 3 -9 3 -9 0z"/>
</g>
</svg>
